<svg width="919" height="153" viewBox="0 0 919 153" fill="none" xmlns="http://www.w3.org/2000/svg">
<path d="M906 150.142C913.172 150.142 919 144.315 919 137.142C919 129.97 913.172 124.142 906 124.142C898.828 124.142 893 129.97 893 137.142C893 144.315 898.828 150.142 906 150.142Z" fill="white"/>
<path d="M880.807 7.38344C873.424 7.38344 866.674 13.0791 866.674 22.9938V131.211C866.674 141.337 873.424 146.822 880.807 146.822H886.503V149.353H814.147V146.822H819.632C827.015 146.822 833.765 141.337 833.765 131.211V59.6991C833.765 47.8859 837.984 39.6589 843.891 32.6975L866.674 7.38344H814.147V5.06299H886.503V7.38344H880.807Z" fill="white"/>
<path d="M790.859 150.532C798.032 150.532 803.859 144.704 803.859 137.532C803.859 130.359 798.032 124.532 790.859 124.532C783.687 124.532 777.859 130.359 777.859 137.532C777.859 144.704 783.687 150.532 790.859 150.532Z" fill="white"/>
<path d="M549.348 40.2915C559.895 40.2915 563.06 47.4638 563.06 52.1047C563.06 57.3785 559.474 63.918 552.09 63.918C544.074 63.918 541.543 58.2223 535.636 58.2223C531.417 58.2223 529.519 62.6522 525.932 68.5589V131.633C525.932 141.126 532.894 147.032 541.121 147.032V149.353H480.367V147.032C488.383 147.032 495.556 141.126 495.556 131.422V85.8568C495.556 77.2078 499.564 70.0355 504.416 64.5508L521.714 45.5653H480.367V43.2448H525.932V62.4413C530.573 54.6361 537.324 40.2915 549.348 40.2915Z" fill="white"/>
<path d="M475.293 121.086L476.769 121.929C472.55 131.844 456.729 152.095 435.212 152.095C409.476 152.095 387.326 135.641 387.326 98.7248C387.326 57.3785 416.227 40.5024 440.064 40.5024C462.847 40.5024 474.871 55.4799 476.558 69.1917V73.4107H412.851C412.43 76.575 412.219 79.9502 412.219 83.5363C412.219 117.71 437.322 126.992 452.088 126.992C462.636 126.992 472.128 123.617 475.293 121.086ZM435.001 44.9324C426.774 44.9324 417.281 53.7923 413.695 69.1917H448.713C448.713 54.0033 444.072 44.9324 435.001 44.9324Z" fill="white"/>
<path d="M383.373 141.126L383.795 142.602C382.951 143.024 381.052 144.501 378.521 145.767C376.622 147.032 374.302 148.298 371.56 149.353C367.763 150.829 363.544 151.884 359.114 151.884C354.473 151.884 350.465 151.04 347.511 149.353C341.816 146.189 338.862 140.704 338.862 134.375V85.4348C339.073 76.9968 343.081 70.0354 347.933 64.7617L365.231 45.5652H338.862H330.635V43.2447H339.917L368.184 17.2979H369.239V43.2447H383.795V45.5652H369.239V132.477C369.239 136.696 370.505 139.227 371.982 140.704C375.357 143.657 380.841 141.97 383.373 141.126Z" fill="white"/>
<path d="M306.045 22.9936C292.755 22.9936 286.848 27.2126 286.637 33.3302V33.5411C286.637 39.6587 294.442 43.2448 304.146 43.2448H325.452V45.5653H308.365V131.633C308.365 133.321 308.576 135.008 308.998 136.485C309.842 139.016 311.107 141.126 312.795 142.813C313.85 143.868 315.115 144.712 316.381 145.345C316.803 145.556 317.225 145.767 317.647 145.767C317.858 145.978 318.069 145.978 318.491 146.189C319.967 146.611 321.022 146.821 322.71 146.821V149.142H263.644V146.821C269.339 146.821 273.98 143.868 276.512 138.594C277.355 136.485 277.988 134.164 277.988 131.422V86.0678C277.988 77.2078 281.996 70.2465 287.059 64.7618L304.146 45.5653H268.917V43.2448H277.988C278.41 39.2368 279.465 34.8068 281.152 30.1659C285.16 18.9855 293.177 7.38326 304.146 2.32045C307.732 0.843803 311.74 0 315.959 0C325.241 0 328.194 5.06281 328.194 10.9694C328.194 16.876 322.288 21.9388 310.264 22.7826C308.998 22.9936 307.521 22.9936 306.045 22.9936Z" fill="white"/>
<path d="M134.956 54.0616H108.165L91.967 91.1095H117.492L115.706 98.2734H88.9151L69.4028 142.69H61.1758L80.6881 98.2734H47.7798L28.2675 142.69H20.0404L39.3418 98.2734H11.0744L12.8606 91.1095H42.6046L58.803 54.0616H30.3247L32.0599 47.1024H61.8039L80.0709 5.14209H88.298L70.0309 47.1024H102.939L121.206 5.14209H129.433L111.166 47.1024H136.691L134.956 54.0616ZM83.7399 91.1095L99.9384 54.0616H67.0301L50.8317 91.1095H83.7399Z" fill="white"/>
<path d="M735.719 100.867C739.094 108.883 737.406 118.164 731.289 124.282L709.771 146.643H767.572V149.174H693.739V146.643C705.974 146.643 711.037 132.931 706.818 122.172L698.17 99.812L696.271 95.3823L676.652 46.02L655.558 94.9604L655.347 95.3823L653.237 99.812L647.752 112.68C642.689 124.915 646.065 146.643 666.316 146.643V149.174H614V146.643C625.18 146.643 635.095 130.189 639.736 120.274L691.419 2.14209H694.372L735.719 100.867Z" fill="white"/>
<path d="M244.719 100.867C248.094 108.883 246.406 118.164 240.289 124.282L218.771 146.643H276.572V149.174H202.739V146.643C214.974 146.643 220.037 132.931 215.818 122.172L207.17 99.812L205.271 95.3823L185.652 46.02L164.558 94.9604L164.347 95.3823L162.237 99.812L156.752 112.68C151.689 124.915 155.065 146.643 175.316 146.643V149.174H123V146.643C134.18 146.643 144.095 130.189 148.736 120.274L200.419 2.14209H203.372L244.719 100.867Z" fill="white"/>
</svg>
