<svg width="2977" height="475" viewBox="0 0 2977 475" fill="none" xmlns="http://www.w3.org/2000/svg">
<g clip-path="url(#clip0_2654_2640)">
<path d="M665.014 360.933V266.03H627.405V250.732H665.014C673.359 250.732 685.876 250.343 702.622 249.619C719.313 248.896 731.886 248.507 740.231 248.507V360.877H773.445V376.175H629.63V360.877H665.014V360.933ZM701.009 123.119C711.19 123.119 720.091 127.124 727.713 135.135C735.725 142.756 739.675 151.657 739.675 161.837C739.675 172.406 735.669 181.641 727.713 189.651C720.091 197.273 711.19 201.111 701.009 201.111C690.828 201.111 681.759 197.106 673.748 189.095C665.737 181.085 661.787 172.017 661.787 161.837C661.787 151.657 665.792 142.756 673.748 135.135C681.759 127.124 690.828 123.119 701.009 123.119Z" fill="#FBF4DB"/>
<path d="M818.954 360.939V22.3804H780.789V7.08239H818.954C813.502 7.08239 838.593 5.24675 894.171 1.63086V360.939H929.61V376.237H819.065L818.954 360.939Z" fill="#FBF4DB"/>
<path d="M979.571 360.939V22.3804H941.406V7.08239H979.571C974.119 7.08239 999.21 5.24675 1054.79 1.63086V360.939H1090.23V376.237H979.849V360.939H979.571V360.939Z" fill="#FBF4DB"/>
<path d="M1283.72 468.574V425.072H1282.61C1272.43 452.331 1251.9 465.96 1221.02 465.96C1201.38 465.96 1191.59 443.93 1191.59 399.984V376.008H1133.29V265.862H1095.68V250.564H1133.29C1141.63 250.564 1154.15 250.175 1170.9 249.451C1187.59 248.728 1200.16 248.339 1208.51 248.339V400.484C1208.51 420.845 1209.06 433.194 1210.12 437.589C1212.68 447.38 1219.41 452.331 1230.26 452.331C1244.06 452.331 1256.8 444.487 1268.42 428.855C1278.6 415.393 1283.67 403.377 1283.67 392.863V265.806H1246.06V250.508H1283.67C1292.01 250.508 1304.53 250.119 1321.28 249.396C1337.97 248.673 1350.54 248.283 1358.88 248.283V451.274L1358.83 466.572L1358.88 468.63C1350.54 468.63 1338.41 468.63 1321.28 468.63C1304.47 468.574 1292.07 468.574 1283.72 468.574Z" fill="#FBF4DB"/>
<path d="M1425.09 360.487V265.584H1390.21V250.286H1425.09C1433.43 250.286 1445.62 249.897 1461.59 249.173C1477.94 248.45 1490.07 248.061 1498.08 248.061V300.408C1519.17 264.749 1546.21 246.948 1579.25 246.948C1596.33 246.948 1611.02 251.287 1623.37 260.021C1635.72 268.755 1643.34 281.494 1646.24 298.182C1669.49 264.026 1699.09 246.893 1735.03 246.893C1751.38 246.893 1765.35 250.175 1776.98 256.683C1790.77 264.694 1797.67 276.153 1797.67 291.062V450.884H1833.11V467.295L1724.68 467.239V299.24C1724.68 279.269 1717.61 269.255 1703.43 269.255C1688.52 269.255 1675.44 277.043 1664.21 292.731C1653.3 308.029 1647.85 323.438 1647.85 339.07V360.32H1676.17V375.618H1574.8V315.65C1574.8 300.018 1574.08 289.838 1572.63 285.11C1569.74 274.54 1562.45 269.311 1550.82 269.311C1539.92 269.311 1529.01 275.319 1518.11 287.279C1504.65 301.465 1497.97 319.488 1497.97 341.295V375.674H1424.92L1425.09 360.487Z" fill="#FBF4DB"/>
<path d="M1879.01 360.709V265.805H1842.63V250.507H1880.24C1888.58 250.507 1901.1 250.118 1917.84 249.395C1934.53 248.672 1947.11 248.282 1955.45 248.282V360.653H1988.67V375.951H1844.85V360.653H1879.01V360.709ZM1916.23 122.895C1926.41 122.895 1935.31 126.9 1942.94 134.91C1950.95 142.531 1954.9 151.432 1954.9 161.612C1954.9 172.182 1950.89 181.416 1942.94 189.427C1935.31 197.048 1926.41 200.886 1916.23 200.886C1906.05 200.886 1896.98 196.881 1888.97 188.87C1880.96 180.86 1877.01 171.792 1877.01 161.612C1877.01 151.432 1881.01 142.531 1888.97 134.91C1896.98 126.9 1906.05 122.895 1916.23 122.895Z" fill="#FBF4DB"/>
<path d="M2106.55 248.396V298.573C2126.53 264.417 2156.29 247.283 2195.9 247.283C2236.96 247.283 2257.49 264.751 2257.49 299.63V451.275H2291.26V466.573L2184.44 467.685V312.202C2184.44 295.458 2182.61 284.221 2178.99 278.38C2175.37 272.539 2169.37 269.646 2161.02 269.646C2145.05 269.646 2131.59 278.38 2120.69 295.848C2111.23 311.145 2106.5 327.278 2106.5 344.412V376.064H2033.51V360.766V265.864H1998.62V250.566H2033.51C2041.85 250.566 2054.04 250.176 2070 249.453C2086.41 248.785 2098.54 248.396 2106.55 248.396Z" fill="#FBF4DB"/>
<path d="M2434.68 411.943V356.314C2413.99 357.426 2398.74 360.152 2388.9 364.491C2373.26 371.389 2365.48 383.405 2365.48 400.484C2365.48 411.053 2368.03 420.454 2373.1 428.854C2378.88 438.645 2386.89 443.596 2397.08 443.596C2408.7 443.596 2418.16 440.147 2425.39 433.249C2431.57 427.019 2434.68 419.954 2434.68 411.943ZM2501.67 360.653H2528.37V375.951C2519.64 376.341 2493.66 376.507 2450.43 376.507C2450.43 397.257 2450.26 408.883 2449.87 411.387C2449.15 423.736 2446.26 432.637 2441.14 438.089C2432.07 448.269 2419.72 456.836 2404.09 463.734C2388.84 471.021 2373.93 474.637 2359.41 474.637C2343.05 474.637 2328.7 470.465 2316.35 462.12C2302.55 452.33 2295.65 439.591 2295.65 423.959C2295.65 395.588 2312.73 374.338 2346.89 360.153C2371.98 349.583 2401.19 343.964 2434.63 343.241V306.693C2434.63 289.225 2433.35 278.155 2430.79 273.427C2426.06 265.416 2414.66 261.411 2396.46 261.411C2391.4 261.411 2385.73 262.301 2379.55 264.137C2371.54 266.696 2367.59 270.145 2367.59 274.484C2367.59 276.32 2369.43 280.102 2373.04 285.943C2376.66 291.784 2378.49 296.29 2378.49 299.572C2378.49 325.05 2366.87 337.734 2343.61 337.734C2333.82 337.734 2325.42 334.841 2318.52 329C2312.01 322.825 2308.73 314.815 2308.73 305.024C2308.73 285.776 2319.97 270.645 2342.5 259.742C2360.3 251.398 2379.94 247.17 2401.36 247.17C2432.96 247.17 2457.83 251.175 2476.02 259.186C2490.54 265.75 2499.11 273.705 2501.61 283.162V360.653H2501.67Z" fill="#FBF4DB"/>
<path d="M2732.72 375.901C2732.72 402.103 2726.15 424.076 2713.08 441.878C2697.11 463.35 2674.02 474.031 2643.87 474.031C2617 474.031 2593.35 462.738 2573.05 440.209C2553.08 418.013 2543.06 393.313 2543.06 366.055C2543.06 327.893 2556.3 297.353 2582.84 274.434C2604.26 255.91 2627.18 246.62 2651.49 246.62C2664.57 246.62 2676.75 250.069 2687.99 256.967C2699.23 263.865 2707.63 272.988 2713.02 284.225H2714.14V21.4888H2671.63V6.24646H2714.14C2708.68 6.24646 2733.78 4.41081 2789.35 0.794922V360.603H2820.4V375.901C2784.85 374.844 2755.64 374.844 2732.72 375.901ZM2714.19 393.369V327.393C2714.19 309.925 2708.57 294.461 2697.28 281.054C2686.38 267.592 2673.47 260.861 2658.61 260.861C2637.92 260.861 2627.57 269.594 2627.57 287.062V430.529C2627.57 450.166 2636.08 459.957 2653.16 459.957C2669.85 459.957 2684.21 453.059 2696.22 439.207C2708.24 425.745 2714.19 410.447 2714.19 393.369Z" fill="#FBF4DB"/>
<path d="M2868.91 360.709V265.805H2831.3V250.507H2868.91C2877.26 250.507 2889.77 250.118 2906.52 249.395C2923.21 248.672 2935.78 248.282 2944.13 248.282V360.653H2977.34V375.951H2833.47V360.653H2868.91V360.709ZM2904.91 122.895C2915.09 122.895 2923.99 126.9 2931.61 134.91C2939.62 142.531 2943.57 151.432 2943.57 161.612C2943.57 172.182 2939.57 181.416 2931.61 189.427C2923.99 197.048 2915.09 200.886 2904.91 200.886C2894.73 200.886 2885.66 196.881 2877.65 188.87C2869.63 180.86 2865.68 171.792 2865.68 161.612C2865.68 151.432 2869.69 142.531 2877.65 134.91C2885.6 126.9 2894.73 122.895 2904.91 122.895Z" fill="#FBF4DB"/>
<path d="M240.717 0.361328L25.5335 276.162C-36.6474 356.028 20.2701 472.45 121.494 472.45H187.445V435.142C180.929 439.676 173.888 443.504 166.426 446.523C161.106 448.676 155.58 450.418 149.873 451.706C142.502 453.369 134.846 454.28 126.985 454.349C126.654 454.349 126.324 454.349 125.994 454.349C119.147 454.349 112.448 453.711 105.954 452.492C55.9974 443.105 18.1853 399.248 18.1853 346.562C18.1853 290.071 61.6481 243.73 116.948 239.151C119.921 238.9 122.94 238.775 125.982 238.775C130.494 238.775 134.925 239.048 139.289 239.584C136.691 232.692 134.789 225.458 133.649 217.974C132.841 212.643 132.419 207.186 132.419 201.627C132.419 142.095 180.678 93.8403 240.216 93.8403C299.754 93.8403 348.013 142.095 348.013 201.627C348.013 207.186 347.591 212.643 346.783 217.974C345.643 225.458 343.741 232.692 341.143 239.584C345.507 239.048 349.938 238.775 354.45 238.775C357.492 238.775 360.511 238.9 363.484 239.151C418.795 243.742 462.247 290.082 462.247 346.562C462.247 397.892 426.371 440.838 378.317 451.694C371.732 453.187 364.92 454.064 357.936 454.292C356.774 454.326 355.612 454.349 354.45 454.349C346.247 454.349 338.261 453.437 330.582 451.694C324.783 450.384 319.155 448.607 313.755 446.397C306.293 443.356 299.253 439.494 292.736 434.937V472.438H358.973C460.196 472.438 517.114 356.017 454.933 276.151L240.717 0.361328Z" fill="#4CBCB6"/>
<path fill-rule="evenodd" clip-rule="evenodd" d="M302.989 322.889C302.989 357.542 274.895 385.634 240.239 385.634C205.582 385.634 177.488 357.542 177.488 322.889C177.488 288.236 205.582 260.145 240.239 260.145C274.895 260.145 302.989 288.236 302.989 322.889ZM240.239 353.054C256.895 353.054 270.407 339.544 270.407 322.889C270.407 306.235 256.895 292.724 240.239 292.724C223.571 292.724 210.071 306.235 210.071 322.889C210.071 339.544 223.571 353.054 240.239 353.054Z" fill="#4CBCB6"/>
<path d="M239.065 243.525C213.42 243.821 190.27 251.738 170.538 262.868L158.986 232.179C155.42 222.701 153.461 212.415 153.461 201.627C153.461 153.703 192.31 114.857 240.239 114.857C288.167 114.857 327.016 153.703 327.016 201.627C327.016 212.415 325.057 222.701 321.491 232.179L310.018 262.651C290.07 251.419 266.601 243.514 240.546 243.514H240.375H240.239C239.851 243.514 239.452 243.514 239.065 243.525Z" fill="#FBF4DB"/>
<path d="M374.808 323.185C364.908 307.351 343.102 282.085 312.787 264.257L343.729 260.452C347.238 260.019 350.827 259.803 354.461 259.803C402.39 259.803 441.238 298.648 441.238 346.572C441.238 394.496 402.39 433.341 354.461 433.341C335.959 433.341 318.859 427.577 304.789 417.735L275.909 397.538C325.968 383.982 361.547 344.749 374.808 323.185Z" fill="#FBF4DB"/>
<path d="M174.559 367.489C170.447 365.062 166.493 362.476 162.711 359.776C146.032 347.884 133.113 334.145 124.865 323.244C133.307 312.183 146.431 298.262 163.258 286.21C166.721 283.727 170.31 281.346 174.024 279.102C165.707 291.655 160.854 306.715 160.854 322.902C160.854 339.42 165.912 354.776 174.559 367.489Z" fill="#FBF4DB"/>
<path d="M317.56 286.186C313.903 283.555 310.098 281.026 306.145 278.656C314.644 291.301 319.611 306.52 319.611 322.901C319.611 339.624 314.439 355.15 305.598 367.943C309.95 365.391 314.12 362.669 318.096 359.809C334.706 347.905 347.512 334.156 355.669 323.243C347.341 312.181 334.308 298.238 317.56 286.186Z" fill="#FBF4DB"/>
<path d="M209.263 472.45H272.526V398.588C262.649 400.934 252.236 402.267 241.333 402.267H241.128H241.025C240.672 402.267 240.331 402.267 239.977 402.256C229.257 402.142 218.992 400.752 209.251 398.371V472.45H209.263Z" fill="#FBF4DB"/>
<path d="M175.904 417.872L205.308 397.447C155.306 383.834 119.522 344.715 106.124 323.185C116.138 307.362 138.103 282.13 168.51 264.302L137.203 260.452C133.695 260.019 130.106 259.803 126.46 259.803C78.5315 259.803 39.6826 298.648 39.6826 346.572C39.6826 394.496 78.5315 433.341 126.46 433.341C144.871 433.319 161.88 427.611 175.904 417.872Z" fill="#FBF4DB"/>
<path d="M223.457 322.878L240.888 299.332L258.319 322.878L240.888 346.425L223.457 322.878Z" fill="#FBF4DB"/>
</g>
<defs>
<clipPath id="clip0_2654_2640">
<rect width="2977" height="475" fill="white"/>
</clipPath>
</defs>
</svg>
